<svg width="21" height="20" viewBox="0 0 21 20" fill="none" xmlns="http://www.w3.org/2000/svg">
<path d="M4 6.71554V8.34446C4 8.39053 4.01919 8.43454 4.05302 8.46605L10.5912 14.5563C10.6572 14.6178 10.7605 14.6162 10.8245 14.5526L16.9509 8.46548C16.9823 8.43423 17 8.39183 17 8.34763V6.7357C17 6.58722 16.8193 6.51286 16.7136 6.61785L11.8347 11.4655C11.7291 11.5705 11.5484 11.4961 11.5484 11.3476V3.16667C11.5484 3.07462 11.4733 3 11.3806 3H10.0387C9.94607 3 9.87097 3.07462 9.87097 3.16667V11.3678C9.87097 11.5133 9.69642 11.589 9.58909 11.4899L4.28188 6.5934C4.17455 6.49438 4 6.57001 4 6.71554Z" fill="#0086D9"/>
<path d="M4 17.8333V13.1667C4 13.0746 4.0751 13 4.16774 13H5.2767C5.36934 13 5.44444 13.0746 5.44444 13.1667V16.1667C5.44444 16.2587 5.51955 16.3333 5.61219 16.3333H15.3878C15.4805 16.3333 15.5556 16.2587 15.5556 16.1667V13.1667C15.5556 13.0746 15.6307 13 15.7233 13H16.8323C16.9249 13 17 13.0746 17 13.1667V17.8333C17 17.9254 16.9249 18 16.8323 18H4.16774C4.0751 18 4 17.9254 4 17.8333Z" fill="#0086D9"/>
<path d="M4 6.71554V8.34446C4 8.39053 4.01919 8.43454 4.05302 8.46605L10.5912 14.5563C10.6572 14.6178 10.7605 14.6162 10.8245 14.5526L16.9509 8.46548C16.9823 8.43423 17 8.39183 17 8.34763V6.7357C17 6.58722 16.8193 6.51286 16.7136 6.61785L11.8347 11.4655C11.7291 11.5705 11.5484 11.4961 11.5484 11.3476V3.16667C11.5484 3.07462 11.4733 3 11.3806 3H10.0387C9.94607 3 9.87097 3.07462 9.87097 3.16667V11.3678C9.87097 11.5133 9.69642 11.589 9.58909 11.4899L4.28188 6.5934C4.17455 6.49438 4 6.57001 4 6.71554Z" stroke="#0086D9" stroke-width="0.167742"/>
<path d="M4 17.8333V13.1667C4 13.0746 4.0751 13 4.16774 13H5.2767C5.36934 13 5.44444 13.0746 5.44444 13.1667V16.1667C5.44444 16.2587 5.51955 16.3333 5.61219 16.3333H15.3878C15.4805 16.3333 15.5556 16.2587 15.5556 16.1667V13.1667C15.5556 13.0746 15.6307 13 15.7233 13H16.8323C16.9249 13 17 13.0746 17 13.1667V17.8333C17 17.9254 16.9249 18 16.8323 18H4.16774C4.0751 18 4 17.9254 4 17.8333Z" stroke="#0086D9" stroke-width="0.167742"/>
</svg>
