<svg width="20" height="20" viewBox="0 0 20 20" fill="none" xmlns="http://www.w3.org/2000/svg">
<path d="M9.1665 1.71979C13.2889 1.71979 16.6167 5.0476 16.6167 9.16998C16.6167 10.7792 16.1064 12.266 15.2388 13.4913L15.2144 13.5255L15.2446 13.5557L17.9282 16.2383C18.0396 16.3497 18.1277 16.4825 18.188 16.628C18.2482 16.7734 18.2788 16.9296 18.2788 17.087C18.2788 17.2443 18.2482 17.4006 18.188 17.546C18.1278 17.6913 18.0394 17.8234 17.9282 17.9346C17.8169 18.046 17.6841 18.1341 17.5386 18.1944C17.3931 18.2546 17.237 18.2862 17.0796 18.2862C16.9222 18.2862 16.766 18.2546 16.6206 18.1944C16.4753 18.1341 16.3432 18.0459 16.2319 17.9346L13.5483 15.251L13.519 15.2794L13.4878 15.2422C12.2256 16.1393 10.715 16.6213 9.1665 16.6202C5.04412 16.6202 1.71631 13.2924 1.71631 9.16998C1.71631 5.0476 5.04412 1.71979 9.1665 1.71979ZM9.17139 3.28326C5.92716 3.28333 3.28857 5.92281 3.28857 9.16705C3.28879 12.4111 5.92729 15.0498 9.17139 15.0499C12.4155 15.0499 15.055 12.4111 15.0552 9.16705C15.0552 5.92277 12.4157 3.28326 9.17139 3.28326Z" fill="#B8B9BD" stroke="#B8B9BD" stroke-width="0.1"/>
</svg>
