<svg width="18" height="18" viewBox="0 0 18 18" fill="none" xmlns="http://www.w3.org/2000/svg">
<path d="M12.4907 15.6287L3.229 15.5125L3.22803 15.5125C3.13606 15.5111 3.04292 15.4901 2.95459 15.4509C2.86619 15.4117 2.78415 15.3556 2.71436 15.2859C2.64455 15.2161 2.58757 15.1341 2.54834 15.0457C2.5091 14.9572 2.48806 14.8634 2.48682 14.7712L2.37256 5.45386L2.38428 5.38354C2.3926 5.36169 2.40489 5.34151 2.42139 5.32495L3.52979 4.21753C3.5944 4.15301 3.68495 4.15699 3.75244 4.19214C3.81997 4.22747 3.87595 4.29929 3.87744 4.3894L3.98486 12.8582L10.9839 5.85913C11.062 5.78105 11.1884 5.80001 11.2651 5.87671L12.1235 6.73413C12.2002 6.81083 12.2192 6.93827 12.1411 7.01636L5.14209 14.0164L13.6089 14.1228C13.6988 14.1234 13.7707 14.1803 13.8062 14.2478C13.8414 14.3152 13.8456 14.4066 13.7808 14.4714L12.7095 15.5427C12.652 15.6001 12.5744 15.6293 12.4917 15.6287L12.4907 15.6287Z" fill="#0086D9" stroke="#0086D9" stroke-width="0.1"/>
</svg>
